<svg width="1443" height="319" viewBox="0 0 1443 319" fill="none" xmlns="http://www.w3.org/2000/svg">
<path d="M1442.93 243.31C1439.85 243.3 1436.77 243.28 1433.69 243.28C1400.11 243.28 1366.53 243.29 1332.95 243.3C1332.22 243.3 1331.48 243.3 1330.57 243.3C1330.57 178.07 1330.57 113.05 1330.57 48.05C1332.58 47.5 1359.42 47.39 1362.76 47.95C1363.02 55.69 1362.85 63.49 1362.88 71.29C1362.91 79.12 1362.89 86.95 1362.89 94.79C1362.89 102.62 1362.89 110.45 1362.89 118.29C1362.89 126.04 1362.89 133.79 1362.89 141.54C1362.89 149.37 1362.89 157.2 1362.89 165.04C1362.89 172.88 1362.89 180.7 1362.89 188.54C1362.89 196.36 1362.89 204.18 1362.89 212.28C1364.04 212.37 1365 212.51 1365.96 212.52C1371.71 212.55 1377.46 212.55 1383.21 212.55C1400.29 212.55 1417.37 212.54 1434.45 212.56C1437.28 212.56 1440.1 212.73 1442.93 212.83C1442.93 222.98 1442.93 233.14 1442.93 243.31Z" fill="black"/>
<path d="M0.93 69.3101C6.02 71.1201 11.13 72.9001 16.2 74.7601C50.44 87.3001 84.67 99.8601 118.9 112.41C119.53 112.64 120.15 112.87 120.77 113.11C123.57 114.2 125.35 116.09 125.43 119.25C125.51 122.35 124.14 124.47 120.97 125.76C116.27 127.67 111.53 129.5 106.78 131.29C76.69 142.57 46.61 153.86 16.48 165.04C9.82 167.51 5.26 171.99 2.23 178.26C1.88 178.99 1.37 179.63 0.93 180.32C0.93 143.31 0.93 106.31 0.93 69.3101Z" fill="#3B2787"/>
<path d="M47.93 0.810059C45.6 1.83006 43.26 1.84006 40.93 0.810059C43.27 0.810059 45.6 0.810059 47.93 0.810059Z" fill="black"/>
<path d="M228.93 95.9301C228.93 96.5101 228.93 97.0901 228.93 97.6701C228.93 126.66 228.91 155.66 228.94 184.65C228.94 189.3 228.3 193.79 226.11 197.94C223.02 203.82 218.61 208.13 212.21 210.52C186.02 220.3 159.92 230.34 133.72 240.09C121.51 244.63 115.62 255.32 115.5 266.45C115.48 268.45 115.54 270.45 115.43 272.45C115.11 278.19 112.22 282.14 106.85 284.17C100.08 286.73 93.27 289.2 86.49 291.71C67.69 298.68 48.89 305.67 30.07 312.6C28.05 313.34 25.95 313.95 23.83 314.3C14.78 315.82 5.23 309.62 2.88 300.76C2.67 299.97 2.6 299.12 2.6 298.3C2.58 266.31 2.54 234.31 2.58 202.32C2.59 196.68 5.39001 192.13 8.98001 188.06C11.26 185.48 14 183.5 17.3 182.27C57.85 167.18 98.39 152.06 138.94 136.95C165.14 127.19 191.34 117.42 217.55 107.69C222.11 106 225.27 102.9 227.33 98.5901C227.76 97.7001 228.16 96.7901 228.57 95.8901C228.69 95.8901 228.81 95.9101 228.93 95.9301Z" fill="black"/>
<path d="M479.15 145.38C479.17 123.96 484.9 104.34 497.43 86.7899C503.94 77.6799 511.86 70.0899 520.73 63.2999C533.56 53.4699 548.09 48.0099 563.86 45.3999C569.95 44.3899 576.08 43.8099 582.26 43.9499C601.16 44.3999 619.14 48.3199 635.23 58.6799C655.06 71.4399 669.94 88.4099 678 110.84C683.62 126.48 684.95 142.59 683.01 159.08C677.93 202.31 644.43 232.69 614.13 241.96C598.76 246.67 583.14 247.89 567.2 245.96C556.78 244.7 546.78 241.9 537.26 237.58C528.02 233.39 519.76 227.63 512.25 220.8C497.44 207.34 487.22 191.09 482.27 171.62C480.09 163.01 479.14 154.26 479.15 145.38ZM651.4 147.1C651.4 145.68 651.41 144.27 651.4 142.85C651.29 132.1 648.88 121.91 643.95 112.33C640.52 105.66 635.9 99.9299 630.48 94.7699C623.4 88.0299 615.49 82.5499 606.24 79.3099C597.37 76.1999 588.16 74.9499 578.73 75.2499C570.49 75.5099 562.42 76.7199 554.85 79.9599C531.99 89.7499 517.31 106.4 512.73 131.25C510.6 142.81 510.96 154.32 513.98 165.67C517.59 179.28 524.86 190.68 535.76 199.58C546.24 208.13 558.17 213.56 571.74 215.02C583.98 216.33 595.97 215.64 607.59 211.03C617.78 206.99 626.52 200.9 633.88 192.88C645.72 179.96 651.37 164.59 651.4 147.1Z" fill="black"/>
<path d="M814.65 167.24C829.6 192.59 844.4 217.67 859.38 243.07C858.47 243.15 857.94 243.24 857.4 243.24C847.07 243.26 836.74 243.23 826.41 243.3C824.77 243.31 823.86 242.73 823.05 241.34C810.25 219.4 797.37 197.5 784.63 175.53C783.14 172.97 781.64 171.8 778.45 171.89C768.04 172.17 757.62 171.99 747.21 172.01C746.23 172.01 745.24 172.1 743.98 172.16C743.98 195.87 743.98 219.4 743.98 243.1C733.07 243.1 722.45 243.1 711.83 243.1C711.31 241.33 711.09 52.3701 711.64 47.7801C712.37 47.7201 713.17 47.6001 713.96 47.6001C739.62 47.5901 765.28 47.5901 790.94 47.6101C821.61 47.6301 842.74 68.0001 850.26 88.9101C862.05 121.73 844.92 153.6 817.69 165.86C816.78 166.26 815.88 166.68 814.65 167.24ZM744.09 77.8001C744.09 99.7501 744.09 121.36 744.09 143.18C745.14 143.23 746.03 143.3 746.93 143.3C760.43 143.31 773.93 143.32 787.43 143.29C789.51 143.29 791.59 143.11 793.66 142.95C807.03 141.89 818.47 130.58 820.72 118.5C821.44 114.62 821.5 110.53 821.33 106.57C820.72 92.5101 808.38 80.1001 796.6 78.4701C794.05 78.1201 791.47 77.8401 788.9 77.8301C774.9 77.7701 760.9 77.8001 746.9 77.8001C746.06 77.8001 745.24 77.8001 744.09 77.8001Z" fill="black"/>
<path d="M1297.85 48.0299C1297.85 58.0699 1297.85 67.9699 1297.85 78.1499C1295.02 78.4899 1292.22 78.2599 1289.43 78.2999C1286.51 78.3399 1283.6 78.3099 1280.68 78.3099C1277.85 78.3099 1275.01 78.3099 1272.18 78.3099C1269.35 78.3099 1266.51 78.3099 1263.68 78.3099C1260.76 78.3099 1257.85 78.3099 1254.93 78.3099C1252.1 78.3099 1249.26 78.3099 1246.43 78.3099C1243.6 78.3099 1240.76 78.3099 1237.93 78.3099C1235.1 78.3099 1232.26 78.3099 1229.43 78.3099C1226.51 78.3099 1223.6 78.3099 1220.68 78.3099C1217.86 78.3099 1215.05 78.3099 1212.31 78.3099C1211.76 80.3999 1211.65 125.91 1212.17 129.25C1218.65 129.37 1225.21 129.29 1231.75 129.31C1238.25 129.32 1244.75 129.31 1251.25 129.31C1257.83 129.31 1264.42 129.31 1271 129.31C1277.49 129.31 1283.99 129.31 1290.43 129.31C1291 131.18 1291.15 155.74 1290.62 159.63C1286.98 159.84 1283.26 159.7 1279.55 159.73C1275.8 159.75 1272.05 159.74 1268.3 159.74C1264.55 159.74 1260.8 159.74 1257.05 159.74C1253.38 159.74 1249.72 159.74 1246.05 159.74C1242.3 159.74 1238.55 159.74 1234.8 159.74C1231.05 159.74 1227.3 159.74 1223.55 159.74C1219.81 159.74 1216.06 159.74 1212.37 159.74C1211.74 161.62 1211.52 207.19 1212.09 212.17C1212.66 212.26 1213.28 212.44 1213.91 212.46C1215.99 212.52 1218.08 212.53 1220.16 212.53C1245.07 212.54 1269.99 212.54 1294.9 212.55C1296.29 212.55 1297.69 212.55 1299.19 212.55C1299.19 222.87 1299.19 232.84 1299.19 242.75C1299.09 242.87 1299.04 242.94 1298.97 242.99C1298.91 243.04 1298.84 243.12 1298.77 243.12C1298.11 243.17 1297.45 243.25 1296.79 243.25C1257.8 243.26 1218.82 243.26 1179.86 243.26C1179.31 241.38 1179.08 52.5799 1179.6 48.0899C1181.48 47.4699 1294.85 47.3499 1297.85 48.0299Z" fill="black"/>
<path d="M352.77 176.24C352.77 198.69 352.77 220.81 352.77 243.1C341.9 243.1 331.3 243.1 320.55 243.1C320.55 178 320.55 113.06 320.55 47.8599C321.45 47.7899 322.33 47.68 323.21 47.67C346.95 47.64 370.69 47.4999 394.43 47.6499C406.63 47.7199 418.26 50.5499 428.61 57.2399C445.77 68.3399 456.09 84.0499 458.17 104.46C461.77 139.72 440.5 162.8 418.35 171.59C412.35 173.97 406.09 175.35 399.66 175.77C395.26 176.05 390.84 176.18 386.43 176.2C376.27 176.26 366.1 176.23 355.94 176.23C355.03 176.24 354.12 176.24 352.77 176.24ZM352.93 145.82C353.73 145.87 354.29 145.94 354.86 145.94C367.69 145.94 380.52 145.99 393.35 145.9C396.08 145.88 398.91 145.77 401.53 145.07C411.78 142.31 419.28 136.08 423.52 126.3C426.44 119.56 426.89 112.43 425.72 105.21C424.67 98.7299 422.14 92.9299 417.54 88.1299C411.04 81.3499 403.08 77.8799 393.69 77.8299C380.69 77.7699 367.69 77.7999 354.7 77.7999C354.14 77.7999 353.59 77.93 352.92 78.01C352.93 100.61 352.93 123.08 352.93 145.82Z" fill="black"/>
<path d="M146.52 115.91C146.3 115.38 146.15 115.09 146.06 114.78C143.87 107.41 138.82 102.73 131.84 100.11C99.91 88.0999 67.94 76.1799 35.99 64.2199C32.72 62.9999 29.45 61.7599 26.14 60.6199C24.77 60.1499 24.15 59.4299 24.16 57.9099C24.28 45.4999 24.26 33.0899 24.44 20.6699C24.55 13.0099 28.32 7.44988 34.88 3.63988C38.16 1.73988 41.75 1.90989 45.31 1.82989C48.71 1.75989 51.84 2.83988 54.98 4.00988C80.69 13.6499 106.42 23.2499 132.15 32.8499C154.76 41.2899 177.37 49.7099 199.98 58.1399C201.3 58.6299 202.64 59.1299 203.9 59.7699C211.21 63.4999 214.96 69.5599 214.8 77.6899C214.64 85.6699 210.57 91.4299 203.34 94.7099C199.33 96.5299 195.12 97.8999 190.99 99.4499C176.96 104.69 162.92 109.92 148.89 115.14C148.18 115.4 147.47 115.6 146.52 115.91Z" fill="black"/>
<path d="M1037.56 47.9899C1040.31 47.3999 1150.53 47.5199 1153.15 48.0699C1153.15 57.9899 1153.15 67.9499 1153.15 78.2699C1143.93 78.3399 1134.8 78.2999 1125.67 78.3099C1116.42 78.3199 1107.17 78.3099 1097.93 78.3099C1088.77 78.3099 1079.61 78.3099 1070.52 78.3099C1069.86 80.2699 1069.69 129.59 1070.33 133.15C1079.14 133.25 1088.02 133.19 1096.9 133.2C1105.73 133.21 1114.56 133.2 1123.4 133.2C1132.3 133.2 1141.2 133.2 1150.26 133.2C1150.26 143.46 1150.26 153.49 1150.26 163.83C1123.51 163.83 1096.91 163.83 1069.99 163.83C1069.99 190.42 1069.99 216.69 1069.99 243.12C1059.13 243.12 1048.59 243.12 1038.04 243.12C1037.98 243.06 1037.92 243.01 1037.86 242.95C1037.8 242.89 1037.71 242.82 1037.71 242.76C1037.66 178.53 1037.61 114.29 1037.56 50.0599C1037.56 49.4099 1037.56 48.7599 1037.56 47.9899Z" fill="black"/>
<path d="M923.03 243.12C923.03 188.25 923.03 133.53 923.03 78.51C916.7 78.09 910.57 78.36 904.45 78.31C898.28 78.26 892.12 78.3 885.95 78.3C879.8 78.3 873.65 78.3 867.3 78.3C867.3 68.08 867.3 58.05 867.3 48.04C869.39 47.44 1008.22 47.41 1010.77 48.03C1010.77 57.96 1010.77 67.92 1010.77 78.21C1007.72 78.39 1004.67 78.27 1001.63 78.29C998.55 78.31 995.46 78.3 992.38 78.3C989.3 78.3 986.21 78.3 983.13 78.3C980.13 78.3 977.13 78.3 974.13 78.3C971.05 78.3 967.96 78.3 964.88 78.3C961.82 78.3 958.76 78.3 955.4 78.3C955.4 133.39 955.4 188.17 955.4 243.11C944.54 243.12 934 243.12 923.03 243.12Z" fill="black"/>
<path d="M696.12 284.63C698.32 283.85 699.25 284.8 700.17 286.19C705.38 294.03 710.65 301.82 715.91 309.63C716.27 310.16 716.69 310.64 717.33 311.11C717.65 302.26 717.5 293.44 717.63 284.47C718.74 284.47 719.61 284.47 720.62 284.47C720.62 295.5 720.62 306.47 720.62 317.4C718.26 318.06 718.22 318.05 716.91 316.09C711.75 308.42 706.59 300.75 701.42 293.08C700.98 292.42 700.48 291.8 700.01 291.16C699.83 291.2 699.66 291.25 699.48 291.29C699.48 300.05 699.48 308.8 699.48 317.69C698.26 317.69 697.37 317.69 696.19 317.69C695.97 306.65 696.07 295.63 696.12 284.63Z" fill="black"/>
<path d="M763.41 291.38C763.41 300.09 763.41 308.81 763.41 317.68C762.23 317.68 761.29 317.68 760.21 317.68C760.21 306.59 760.21 295.63 760.21 284.69C762.73 284.11 762.73 284.11 764.11 286.16C769.36 293.97 774.62 301.78 779.88 309.58C780.24 310.12 780.66 310.62 781.39 311.58C781.89 308.96 781.48 306.76 781.56 304.61C781.64 302.36 781.58 300.11 781.58 297.86C781.58 295.69 781.58 293.53 781.58 291.36C781.58 289.13 781.58 286.89 781.58 284.49C782.7 284.49 783.57 284.49 784.57 284.49C784.57 295.53 784.57 306.56 784.57 317.53C782.73 318.28 781.81 317.49 780.92 316.15C775.8 308.45 770.62 300.79 765.46 293.13C765.01 292.46 764.51 291.83 764.04 291.17C763.82 291.24 763.62 291.31 763.41 291.38Z" fill="black"/>
<path d="M395.12 284.63C397.32 283.85 398.25 284.8 399.17 286.19C404.38 294.03 409.65 301.82 414.91 309.63C415.27 310.16 415.69 310.64 416.33 311.11C416.65 302.26 416.5 293.44 416.63 284.47C417.74 284.47 418.61 284.47 419.63 284.47C419.63 295.51 419.63 306.47 419.63 317.4C417.27 318.06 417.23 318.05 415.92 316.09C410.76 308.42 405.6 300.75 400.43 293.08C399.99 292.42 399.49 291.8 399.02 291.16C398.84 291.2 398.67 291.25 398.49 291.29C398.49 300.05 398.49 308.8 398.49 317.69C397.27 317.69 396.39 317.69 395.2 317.69C394.97 306.65 395.07 295.63 395.12 284.63Z" fill="black"/>
<path d="M589.13 304.17C591.74 308.67 594.27 313.04 596.82 317.44C593.89 318.17 593.82 318.13 592.45 315.74C590.3 311.99 588.13 308.25 585.94 304.45C582.88 304.45 579.91 304.45 576.59 304.45C576.52 308.89 576.44 313.24 576.37 317.71C575.25 317.71 574.36 317.71 573.27 317.71C573.27 306.64 573.27 295.63 573.27 284.48C573.89 284.42 574.45 284.32 575.01 284.31C578.84 284.3 582.67 284.26 586.5 284.31C590.83 284.36 594.67 287.29 595.82 291.3C597.1 295.8 595.51 300.16 591.67 302.64C590.91 303.14 590.12 303.58 589.13 304.17ZM576.63 301.31C580.15 301.31 583.46 301.37 586.77 301.29C590.37 301.21 593.21 298.13 593.26 294.38C593.31 290.65 590.51 287.47 586.91 287.34C584.09 287.24 581.25 287.31 578.43 287.34C577.88 287.34 577.32 287.48 576.64 287.57C576.63 292.09 576.63 296.47 576.63 301.31Z" fill="black"/>
<path d="M868.06 284.36C873.23 284.36 877.98 284.22 882.71 284.41C886.34 284.55 889.91 287.89 890.85 291.54C891.98 295.92 890.49 300.07 886.88 302.51C886.07 303.06 885.2 303.54 884.13 304.19C886.73 308.67 889.26 313.03 891.81 317.43C888.93 318.2 888.82 318.15 887.46 315.77C885.73 312.73 883.98 309.7 882.23 306.68C881.78 305.9 881.27 305.14 880.83 304.44C877.77 304.44 874.87 304.44 871.6 304.44C871.52 308.88 871.44 313.23 871.36 317.63C870.84 317.73 870.53 317.84 870.22 317.84C869.64 317.85 869.07 317.79 868.2 317.75C867.97 306.66 868.09 295.65 868.06 284.36ZM871.63 301.09C872.19 301.19 872.44 301.27 872.68 301.27C875.59 301.29 878.5 301.33 881.41 301.3C885.32 301.27 888.3 298.16 888.25 294.24C888.2 290.38 885.33 287.4 881.51 287.33C878.77 287.28 876.02 287.31 873.27 287.35C872.73 287.36 872.19 287.55 871.63 287.66C871.63 292.2 871.63 296.58 871.63 301.09Z" fill="black"/>
<path d="M370.34 318.23C361.29 318.84 353.55 310.73 353.4 301.6C353.24 291.96 360.48 284.19 369.51 283.75C380.08 283.23 387.34 292.27 387.5 300.55C387.68 309.96 380.29 318.83 370.34 318.23ZM370.38 315.33C377.48 315.62 384.47 309.74 384.45 300.97C384.43 292.85 377.94 286.81 370.43 286.78C362.16 286.74 356.25 293.82 356.36 301.2C356.46 309.27 362.39 315.31 370.38 315.33Z" fill="black"/>
<path d="M549.4 318.23C540.39 318.88 532.58 310.83 532.4 301.66C532.21 292.03 539.45 284.21 548.44 283.75C559.12 283.21 566.3 292.31 566.49 300.48C566.71 309.98 559.27 318.81 549.4 318.23ZM549.22 315.33C556.45 315.69 563.41 309.77 563.44 301.13C563.47 293.06 557.5 287.03 549.59 286.81C541.16 286.57 535.32 293.77 535.36 301.03C535.39 309.13 541.3 315.29 549.22 315.33Z" fill="black"/>
<path d="M833.66 314.76C838.92 314.76 844.04 314.76 849.29 314.76C849.29 315.86 849.29 316.65 849.29 317.75C843 317.94 836.73 317.8 830.26 317.84C830.26 306.62 830.26 295.68 830.26 284.4C836.42 284.16 842.62 284.35 849.05 284.32C849.05 285.29 849.05 286.12 849.05 287.27C843.98 287.27 838.94 287.27 834.01 287.27C833.39 289.32 833.28 296.08 833.78 299.19C838.33 299.19 842.94 299.19 847.74 299.19C847.74 300.34 847.74 301.19 847.74 302.34C843.07 302.34 838.45 302.34 833.66 302.34C833.66 306.53 833.66 310.4 833.66 314.76Z" fill="black"/>
<path d="M640.39 317.66C637.38 317.92 637.38 317.92 636.49 315.52C635.94 314.04 635.37 312.56 634.87 311.07C634.49 309.95 633.79 309.59 632.61 309.6C628.28 309.65 623.95 309.62 619.63 309.56C618.63 309.55 618.12 309.93 617.79 310.84C616.97 313.1 616.08 315.34 615.17 317.7C614.17 317.7 613.21 317.7 612.05 317.7C616.26 306.57 620.43 295.56 624.58 284.61C627.78 284.1 627.79 284.09 628.77 286.7C632.39 296.27 636 305.84 639.61 315.41C639.86 316.1 640.09 316.81 640.39 317.66ZM619.45 306.34C624.23 306.34 628.49 306.34 633.09 306.34C630.84 300.28 628.69 294.51 626.55 288.75C626.36 288.75 626.17 288.76 625.98 288.76C623.84 294.52 621.7 300.3 619.45 306.34Z" fill="black"/>
<path d="M729.16 317.74C728.11 317.74 727.22 317.74 726.04 317.74C730.26 306.59 734.42 295.6 738.62 284.48C739.61 284.48 740.59 284.48 741.91 284.48C746.04 295.38 750.21 306.39 754.39 317.41C751.6 318.19 751.45 318.12 750.52 315.6C749.97 314.12 749.41 312.64 748.9 311.15C748.53 310.08 747.93 309.57 746.71 309.59C742.38 309.65 738.05 309.63 733.73 309.55C732.59 309.53 732.1 309.99 731.74 310.98C730.95 313.17 730.08 315.33 729.16 317.74ZM733.45 306.34C738.22 306.34 742.49 306.34 747.1 306.34C744.85 300.28 742.7 294.51 740.56 288.75C740.37 288.75 740.18 288.75 739.99 288.75C737.84 294.52 735.7 300.29 733.45 306.34Z" fill="black"/>
<path d="M898.15 317.73C896.97 317.73 896.07 317.73 895.02 317.73C899.26 306.56 903.44 295.53 907.64 284.45C908.72 284.45 909.69 284.45 910.91 284.45C915.08 295.47 919.26 306.5 923.44 317.56C920.43 318.05 920.43 318.05 919.48 315.47C918.96 314.06 918.4 312.67 917.94 311.25C917.55 310.06 916.88 309.57 915.56 309.59C911.31 309.66 907.07 309.63 902.82 309.56C901.74 309.54 901.14 309.84 900.77 310.89C899.97 313.15 899.06 315.38 898.15 317.73ZM915.87 306.39C914.66 301.57 910.31 290.28 909.01 288.68C906.83 294.58 904.69 300.36 902.45 306.39C907.12 306.39 911.4 306.39 915.87 306.39Z" fill="black"/>
<path d="M477.29 284.42C478.29 284.42 479.1 284.42 480.05 284.42C480.14 285.04 480.28 285.59 480.28 286.14C480.3 292.8 480.36 299.47 480.26 306.13C480.19 310.93 478.51 315.02 473.85 317.12C469.95 318.88 465.86 318.83 461.97 317.06C458.66 315.56 456.69 312.8 456.03 309.2C455.78 307.81 455.6 306.39 455.58 304.98C455.53 298.57 455.55 292.15 455.56 285.74C455.56 285.34 455.68 284.94 455.77 284.42C456.74 284.42 457.63 284.42 458.82 284.42C458.86 285.27 458.93 286.15 458.93 287.02C458.92 293.27 458.9 299.52 458.88 305.76C458.88 306.51 458.85 307.26 458.92 308.01C459.26 311.46 461.23 313.95 464.57 314.85C467.99 315.77 471.34 315.67 474.27 313.3C475.84 312.03 476.72 310.36 476.93 308.37C477.1 306.72 477.21 305.05 477.21 303.39C477.21 297.48 477.14 291.56 477.11 285.65C477.14 285.34 477.22 285.02 477.29 284.42Z" fill="black"/>
<path d="M348.55 291.94C347.83 292.38 347.08 292.83 346.23 293.35C343.8 289.45 340.45 287.19 335.99 286.88C331.87 286.59 328.03 287.37 324.88 290.32C319.01 295.81 318.85 305.87 324.54 311.46C327.73 314.59 331.65 315.71 335.99 315.29C340.39 314.87 343.82 312.69 346.18 308.74C347.09 309.29 347.83 309.75 348.55 310.19C345.81 316.26 338.75 319.3 331.07 318.05C323.21 316.77 317.61 309.65 317.38 301.31C317.14 292.79 323.15 285.56 331.1 284.06C338.82 282.58 346.08 286.31 348.55 291.94Z" fill="black"/>
<path d="M823.64 291.89C822.81 292.39 822.11 292.81 821.27 293.32C818.51 289.06 814.72 286.79 809.62 286.82C805.7 286.85 802.2 287.86 799.44 290.75C793.69 296.77 794.06 306.73 800.18 312.03C806.52 317.52 815.29 316.26 821.28 308.85C822 309.25 822.76 309.67 823.48 310.08C821.88 315.36 814.46 318.92 806.94 318.18C799.5 317.45 793.2 310.72 792.47 302.92C791.5 292.58 798.3 286.19 804.53 284.43C812.39 282.21 820.41 285.53 823.64 291.89Z" fill="black"/>
<path d="M425.42 310.39C426.38 309.81 427.07 309.39 427.73 308.99C427.95 309.19 428.15 309.27 428.19 309.4C430.11 315.68 438.16 316.38 442.47 314.29C444.48 313.31 445.4 311.66 445.54 309.51C445.68 307.42 444.96 305.7 443.07 304.7C441.61 303.92 440.07 303.27 438.53 302.65C436.6 301.87 434.61 301.24 432.69 300.45C427.96 298.52 426.2 295.55 426.96 290.93C427.57 287.22 431.35 284.1 435.56 283.81C440.95 283.44 444.88 285.64 447.61 290.64C446.86 291.15 446.15 291.63 445.35 292.16C444.96 291.64 444.65 291.26 444.38 290.86C441.95 287.29 437.99 285.91 433.92 287.22C431.67 287.95 430.23 289.37 429.92 291.82C429.6 294.37 430.55 296.26 432.86 297.32C434.82 298.22 436.87 298.95 438.88 299.74C440.27 300.29 441.71 300.74 443.07 301.36C447.22 303.27 449.01 306.2 448.56 310.19C448.12 314.14 445.17 317.41 440.93 317.96C438.42 318.29 435.75 318.17 433.27 317.67C429.39 316.9 426.99 314.18 425.42 310.39Z" fill="black"/>
<path d="M662.43 302.84C662.43 308.04 662.43 312.76 662.43 317.66C661.27 317.66 660.33 317.66 659.22 317.66C659.22 306.64 659.22 295.69 659.22 284.37C665.27 284.25 671.29 284.32 677.53 284.35C677.53 285.35 677.53 286.2 677.53 287.35C672.58 287.35 667.71 287.35 662.67 287.35C662.67 291.52 662.67 295.39 662.67 299.56C667.25 300.07 671.89 299.57 676.69 299.92C676.69 300.84 676.69 301.69 676.69 302.84C672.07 302.84 667.45 302.84 662.43 302.84Z" fill="black"/>
<path d="M519.77 317.73C518.53 317.73 517.8 317.73 516.72 317.73C516.51 312.69 516.59 307.73 516.58 302.78C516.57 297.79 516.58 292.8 516.58 287.52C513.2 287.08 509.89 287.53 506.54 287.21C506.54 286.22 506.54 285.43 506.54 284.46C514.28 284.46 521.91 284.46 529.74 284.46C529.74 285.32 529.74 286.17 529.74 287.33C526.53 287.33 523.32 287.33 519.78 287.33C519.77 297.6 519.77 307.55 519.77 317.73Z" fill="black"/>
<path d="M488.06 284.42C489.38 284.42 490.27 284.42 491.44 284.42C491.44 294.47 491.44 304.42 491.44 314.67C496.49 314.67 501.27 314.67 506.25 314.67C506.25 315.82 506.25 316.67 506.25 317.68C500.31 317.68 494.44 317.68 488.3 317.68C487.9 306.66 488.12 295.64 488.06 284.42Z" fill="black"/>
<path d="M606.3 317.69C605.11 317.69 604.23 317.69 603.21 317.69C603.21 306.59 603.21 295.63 603.21 284.49C604.22 284.49 605.17 284.49 606.3 284.49C606.3 295.49 606.3 306.51 606.3 317.69Z" fill="black"/>
<path d="M687.17 317.71C686.16 317.71 685.27 317.71 684.23 317.71C684.23 306.56 684.23 295.54 684.23 284.41C685.29 284.41 686.19 284.41 687.08 284.41C687.6 286.25 687.7 313.97 687.17 317.71Z" fill="black"/>
<path d="M859.16 317.71C858.15 317.71 857.26 317.71 856.22 317.71C856.22 306.56 856.22 295.54 856.22 284.41C857.28 284.41 858.18 284.41 859.07 284.41C859.6 286.26 859.7 314.01 859.16 317.71Z" fill="black"/>
</svg>
